<?xml version="1.0" encoding="utf-8"?>
<!-- Generator: Adobe Illustrator 23.0.5, SVG Export Plug-In . SVG Version: 6.00 Build 0)  -->
<svg version="1.1" id="Capa_1" xmlns="http://www.w3.org/2000/svg" xmlns:xlink="http://www.w3.org/1999/xlink" x="0px" y="0px"
	 viewBox="0 0 334.8 333.8" style="enable-background:new 0 0 334.8 333.8;" xml:space="preserve">
<style type="text/css">
	.st0{fill:#5EA8FF;}
</style>
<g>
	<path class="st0" d="M333.9,152c-3.4-36.1-17-67.9-41-95.2c-21.4-24.3-47.8-41-78.9-50.1c-12.2-3.6-24.6-5.6-37.3-6.3
		c-1.4-0.1-2.8-0.3-4.3-0.5c-3.3,0-6.7,0-10,0c-3.3,0.3-6.6,0.6-9.9,0.9c-36.6,3.4-68.7,17.2-96.1,41.5
		C29.8,65.9,12.6,95.1,4.4,129.6c-2.3,9.7-3.6,19.5-4,29.4c0,1-0.3,1.9-0.4,2.9c0,3.5,0,7,0,10.5c0.3,3.9,0.6,7.8,1,11.7
		c3.9,35.6,17.3,67.2,41.4,93.6c39,42.7,87.7,61,145,54.9c34.2-3.6,64.4-17.4,90.1-40.2c33.3-29.4,52-66.4,56.3-110.6
		c0.3-3.2,0.6-6.3,0.9-9.5c0-3.5,0-7,0-10.5C334.5,158.7,334.2,155.3,333.9,152z M167.5,325.7c-87.8,0-159-71.1-159-158.8
		C8.6,79.5,79.7,8.6,167.3,8.5c87.8,0,158.9,70.9,159,158.5C326.3,254.6,255.2,325.7,167.5,325.7z"/>
	<path class="st0" d="M272.4,118.6c-12.5-0.9-25-1.8-37.6-2.7c-33.6-2.5-67.3-5-100.9-7.4c-3.4-0.3-5.7,1.4-5.9,4.3
		c-0.2,2.9,1.8,4.8,5.3,5.1c4.1,0.3,8.2,0.6,12.3,0.9c36.6,2.7,73.3,5.3,109.9,8c3.6,0.3,7.2,0.6,10.9,0.9c-0.2,1-0.3,1.6-0.5,2.2
		c-9.1,27.2-18.2,54.3-27.2,81.5c-0.5,1.6-1.3,2.1-3,2.1c-38.3,0-76.6,0-114.8,0c-1.7,0-2.4-0.5-2.7-2.2c-1.8-9.2-3.7-18.4-5.5-27.6
		c-5.9-29.4-11.8-58.8-17.6-88.3c-0.6-3.1-2-5-5.1-6c-4.8-1.6-9.5-3.7-14.2-5.5c-6.2-2.5-12.5-5-18.8-7.3c-4-1.5-7.7,1.4-6.5,5.2
		c0.5,1.5,2.2,3.1,3.8,3.7c9.6,4,19.3,7.7,29,11.4c1.9,0.7,2.8,1.8,3.2,3.8c5.8,29.4,11.7,58.7,17.6,88c1.9,9.6,3.8,19.2,5.7,28.8
		c0.8,4.1,2,5.1,6,5.3c0.7,0,1.4,0.2,2.4,0.3c-0.4,1.1-0.6,2-0.9,2.7c-2.1,5.9-4,11.9-6.4,17.7c-1.8,4.5-0.2,8.7,5.9,8.1
		c2.3-0.2,4.5,0,7.6,0c-5,5-7.5,10.3-7.5,16.6c0,6.5,2.4,11.9,7.1,16.3c7.8,7.2,19.6,7.6,28,1.2c4.1-3.1,6.9-7.2,8-12.3
		c1.9-8.3-0.6-15.4-6.7-21.7c17.5,0,34.5,0,52.1,0c-4.9,5-7.5,10.6-7.3,17.2c0.2,6.6,2.9,12.2,8.1,16.4c8.3,6.8,20.2,6.5,28.2-0.5
		c3.9-3.4,6.3-7.7,7.2-12.8c1.2-7.8-1.2-14.4-7.2-20.4c2.9,0,5.2,0.1,7.3,0c2.5-0.1,4.3-2.1,4.3-4.6c0-2.4-1.6-4.3-4-4.6
		c-1-0.1-2.1-0.1-3.1-0.1c-37.9,0-75.9,0-113.8,0c-1.1,0-2.1,0-3.6,0c2.1-5.8,4-11,5.7-16.3c0.8-2.5,2-3.2,4.6-3.2
		c36,0.1,71.9,0.1,107.9,0.1c4.4,0,5.3-0.6,6.7-4.9c10.3-30.7,20.5-61.5,30.8-92.2C278.7,121.6,276.8,118.9,272.4,118.6z M220.2,256
		c6.8,0.1,12.3,5.6,12.4,12.3c0.1,6.9-5.5,12.5-12.4,12.5c-7,0-12.5-5.5-12.5-12.4C207.8,261.5,213.3,255.9,220.2,256z M138.7,256
		c6.9-0.1,12.5,5.5,12.5,12.4c0,7-5.5,12.4-12.4,12.4c-6.9,0-12.5-5.6-12.5-12.5C126.4,261.6,132,256.1,138.7,256z"/>
</g>
</svg>
