<?xml version="1.0" encoding="utf-8"?>
<!-- Generator: Adobe Illustrator 23.0.5, SVG Export Plug-In . SVG Version: 6.00 Build 0)  -->
<svg version="1.1" id="Capa_1" xmlns="http://www.w3.org/2000/svg" xmlns:xlink="http://www.w3.org/1999/xlink" x="0px" y="0px"
	 viewBox="0 0 314.6 314.7" style="enable-background:new 0 0 314.6 314.7;" xml:space="preserve">
<style type="text/css">
	.st0{fill:#5EA8FF;}
</style>
<g>
	<path class="st0" d="M314.6,52.6c0-2.8,0-5.6-0.3-8.3C310.8,18.5,289.5,0,263.4,0C193,0,122.7,0,52.3,0c-2.6,0-5.2,0-7.8,0.3
		C18.7,3.8,0.1,24.7,0.1,50.8c-0.1,71-0.1,142.1,0,213.1c0,28.4,22,50.5,50.4,50.7c27.3,0.2,54.5,0,81.7,0c0.9,0,1.8-0.1,2.8-0.2
		c0-47,0-93.7,0-140.8c-8.4,0-16.7,0-25,0c0-11.4,0-22.4,0-33.7c8.4,0,16.5,0,24.8,0c0-1.3,0-2.3,0-3.2c0.2-11.4-0.2-22.8,0.6-34.2
		c0.8-11.2,5.1-21.1,14.1-28.4c8-6.5,17.6-8.6,27.6-8.8s20,0,30,0c0.8,0,1.5,0.1,2.3,0.2c0,8.8,0,17.4,0,26.1c-1,0-1.8,0.1-2.7,0.1
		c-5.1,0-10.3,0-15.4,0c-13.3,0-20.8,7.5-20.8,20.7c0,8.4,0,16.7,0,25.1c0,0.8,0.1,1.5,0.2,2.6c12.9,0,25.7,0,38.6,0
		c-0.2,2.2-0.3,4.1-0.5,6c-0.8,8.1-1.7,16.3-2.2,24.4c-0.2,2.8-1.1,3.3-3.6,3.2c-11.3-0.1-22.6,0-34.2,0c-0.1,0.9-0.1,1.5-0.1,2.1
		c0,45.5,0,91.1,0,136.6c0,1.9,0.7,2.3,2.4,2.3c31.5,0,63,0,94.5-0.1c9,0,17.4-2.6,24.9-7.5c16.3-10.5,24-25.6,24-45
		C314.6,192.2,314.6,122.4,314.6,52.6z M298.4,264.1c0,18.7-15.4,34.2-34,34.3c-25.5,0.1-51,0-76.5,0c-2,0-2.9-0.3-2.9-2.7
		c0.1-34.4,0-68.8,0-103.2c0-0.8,0.1-1.5,0.1-2.5c1.3-0.1,2.5-0.2,3.7-0.2c9.9,0,19.8,0,29.8,0c2,0,2.8-0.5,3-2.7
		c1.8-19.9,3.7-39.8,5.5-59.7c0.1-1.1,0.1-2.2,0.2-3.7c-13.4,0-26.6,0-40.2,0c0-4.8-0.1-9.3,0-13.8c0.1-2,1.8-2,3.3-2
		c10.7,0,21.4,0,32.1,0c0.9,0,1.9,0,3,0c0-19.7,0-39.1,0-58.7c-0.4-0.1-0.9-0.3-1.4-0.3c-17.6,0.1-35.2-0.4-52.7,0.5
		c-17.4,0.8-32.2,8-42.3,22.8c-7.6,11-10.5,23.5-10.6,36.8c0,4.8,0,9.5,0,14.5c-8.4,0-16.5,0-24.8,0c0,22.1,0,44,0,66.2
		c8.2,0,16.5,0,24.8,0c0,36.3,0,72.2,0,108.4c-1,0-1.9,0.1-2.8,0.1c-21.8,0-43.5,0.1-65.3,0c-19-0.1-34.3-15.5-34.4-34.5
		c0-71,0-142.1,0-213.1c0-19.2,15.4-34.6,34.5-34.6c71.1-0.1,142.2-0.1,213.4,0c18.8,0,34.3,15.5,34.3,34.3
		C298.5,121.7,298.5,192.9,298.4,264.1z"/>
</g>
</svg>
