<?xml version="1.0" encoding="utf-8"?>
<!-- Generator: Adobe Illustrator 23.0.5, SVG Export Plug-In . SVG Version: 6.00 Build 0)  -->
<svg version="1.1" id="Capa_1" xmlns="http://www.w3.org/2000/svg" xmlns:xlink="http://www.w3.org/1999/xlink" x="0px" y="0px"
	 viewBox="0 0 338.4 327.1" style="enable-background:new 0 0 338.4 327.1;" xml:space="preserve">
<style type="text/css">
	.st0{fill:#5EA8FF;}
</style>
<g>
	<path class="st0" d="M308.9,0H29.5C13.2,0,0,13.2,0,29.5v268.1c0,16.3,13.2,29.5,29.5,29.5h279.4c16.3,0,29.5-13.2,29.5-29.5V29.5
		C338.4,13.2,325.2,0,308.9,0z M29.5,11.3h279.4c10.1,0,18.2,8.2,18.2,18.2v38.2H11.3V29.5C11.3,19.4,19.5,11.3,29.5,11.3z
		 M308.9,315.8H29.5c-10.1,0-18.2-8.2-18.2-18.2V79h315.8v218.6C327.1,307.7,319,315.8,308.9,315.8z"/>
	<path class="st0" d="M39.5,56.4c9.3,0,16.9-7.6,16.9-16.9c0-9.4-7.6-16.9-16.9-16.9s-16.9,7.6-16.9,16.9
		C22.6,48.8,30.1,56.4,39.5,56.4z M39.5,33.8c3.1,0,5.6,2.5,5.6,5.6c0,3.1-2.5,5.6-5.6,5.6c-3.1,0-5.6-2.5-5.6-5.6
		S36.4,33.8,39.5,33.8z"/>
	<path class="st0" d="M84.6,56.4c9.3,0,16.9-7.6,16.9-16.9c0-9.4-7.6-16.9-16.9-16.9s-16.9,7.6-16.9,16.9
		C67.7,48.8,75.3,56.4,84.6,56.4z M84.6,33.8c3.1,0,5.6,2.5,5.6,5.6c0,3.1-2.5,5.6-5.6,5.6c-3.1,0-5.6-2.5-5.6-5.6
		S81.5,33.8,84.6,33.8z"/>
	<path class="st0" d="M129.7,56.4c9.3,0,16.9-7.6,16.9-16.9c0-9.4-7.6-16.9-16.9-16.9c-9.3,0-16.9,7.6-16.9,16.9
		C112.8,48.8,120.4,56.4,129.7,56.4z M129.7,33.8c3.1,0,5.6,2.5,5.6,5.6c0,3.1-2.5,5.6-5.6,5.6c-3.1,0-5.6-2.5-5.6-5.6
		C124.1,36.4,126.6,33.8,129.7,33.8z"/>
	<path class="st0" d="M287.6,56.4h11.3c6.2,0,11.3-5,11.3-11.3V33.8c0-6.2-5-11.3-11.3-11.3h-11.3c-6.2,0-11.3,5.1-11.3,11.3v11.3
		C276.3,51.3,281.4,56.4,287.6,56.4z M287.6,33.8h11.3v11.3h-11.3V33.8z"/>
	<path class="st0" d="M87.1,208.7h17.5c-2,3.4-3.1,7.3-3.1,11.3c0,12.5,10.1,22.6,22.6,22.6s22.6-10.1,22.6-22.6
		c0-4-1.1-7.9-3.1-11.3h3.1c3.1,0,5.6-2.5,5.6-5.6c0-3.1-2.5-5.6-5.6-5.6H56.4c-1.5,0-3-0.7-4.1-1.8s-1.6-2.6-1.6-4.2l-0.3-5.3H141
		c2.5,0,4.7-1.6,5.4-4l16.9-56.4c0.5-1.7,0.2-3.6-0.9-5c-1.1-1.4-2.7-2.3-4.5-2.3H46.2l-1.1-17.3c-0.2-3-2.7-5.3-5.6-5.3H28.2
		c-3.1,0-5.6,2.5-5.6,5.6c0,3.1,2.5,5.6,5.6,5.6h6l5.3,84.6c0,6.5,3.8,12.5,9.8,15.3c-6.5,9.2-5.3,21.8,2.8,29.5
		c8.2,7.8,20.8,8.3,29.6,1.3C90.5,230.8,92.8,218.4,87.1,208.7z M135.4,220c0,6.2-5,11.3-11.3,11.3s-11.3-5-11.3-11.3
		s5-11.3,11.3-11.3S135.4,213.7,135.4,220z M150.3,129.7L147,141H79c-3.1,0-5.6,2.5-5.6,5.6c0,3.1,2.5,5.6,5.6,5.6h64.6l-6.8,22.6
		H49.7l-2.8-45.1L150.3,129.7L150.3,129.7z M67.7,231.2c-6.2,0-11.3-5-11.3-11.3s5-11.3,11.3-11.3s11.3,5,11.3,11.3
		S73.9,231.2,67.7,231.2z"/>
	<path class="st0" d="M197.4,135.4c6.8,0,13-4.1,15.6-10.5c2.6-6.3,1.2-13.6-3.7-18.4c-4.8-4.8-12.1-6.3-18.4-3.7
		s-10.5,8.8-10.5,15.6C180.5,127.8,188,135.4,197.4,135.4z M197.4,112.8c3.1,0,5.6,2.5,5.6,5.6c0,3.1-2.5,5.6-5.6,5.6
		s-5.6-2.5-5.6-5.6S194.3,112.8,197.4,112.8z"/>
	<path class="st0" d="M304.5,112.8h-73.3c-3.1,0-5.6,2.5-5.6,5.6c0,3.1,2.5,5.6,5.6,5.6h73.3c3.1,0,5.6-2.5,5.6-5.6
		S307.7,112.8,304.5,112.8z"/>
	<path class="st0" d="M197.4,180.5c9.3,0,16.9-7.6,16.9-16.9c0-9.3-7.6-16.9-16.9-16.9s-16.9,7.6-16.9,16.9
		C180.5,172.9,188,180.5,197.4,180.5z M197.4,157.9c3.1,0,5.6,2.5,5.6,5.6c0,3.1-2.5,5.6-5.6,5.6s-5.6-2.5-5.6-5.6
		S194.3,157.9,197.4,157.9z"/>
	<path class="st0" d="M304.5,157.9h-73.3c-3.1,0-5.6,2.5-5.6,5.6c0,3.1,2.5,5.6,5.6,5.6h73.3c3.1,0,5.6-2.5,5.6-5.6
		S307.7,157.9,304.5,157.9z"/>
	<path class="st0" d="M197.4,225.6c9.3,0,16.9-7.6,16.9-16.9s-7.6-16.9-16.9-16.9s-16.9,7.6-16.9,16.9
		C180.5,218,188,225.6,197.4,225.6z M197.4,203c3.1,0,5.6,2.5,5.6,5.6c0,3.1-2.5,5.6-5.6,5.6s-5.6-2.5-5.6-5.6
		C191.8,205.6,194.3,203,197.4,203z"/>
	<path class="st0" d="M304.5,203h-73.3c-3.1,0-5.6,2.5-5.6,5.6c0,3.1,2.5,5.6,5.6,5.6h73.3c3.1,0,5.6-2.5,5.6-5.6
		C310.2,205.6,307.7,203,304.5,203z"/>
	<path class="st0" d="M231.2,259.4H107.2c-12.5,0-22.6,10.1-22.6,22.6c0,12.5,10.1,22.6,22.6,22.6h124.1c12.5,0,22.6-10.1,22.6-22.6
		C253.8,269.5,243.7,259.4,231.2,259.4z M231.2,293.3H107.2c-6.2,0-11.3-5-11.3-11.3c0-6.2,5-11.3,11.3-11.3h124.1
		c6.2,0,11.3,5,11.3,11.3C242.5,288.2,237.5,293.3,231.2,293.3z"/>
</g>
</svg>
