<?xml version="1.0" encoding="utf-8"?>
<!-- Generator: Adobe Illustrator 23.0.5, SVG Export Plug-In . SVG Version: 6.00 Build 0)  -->
<svg version="1.1" id="Capa_1" xmlns="http://www.w3.org/2000/svg" xmlns:xlink="http://www.w3.org/1999/xlink" x="0px" y="0px"
	 viewBox="0 0 277 278" style="enable-background:new 0 0 277 278;" xml:space="preserve">
<style type="text/css">
	.st0{fill:#C0F1FC;}
</style>
<path class="st0" d="M141.7,6.6C69.9,6.6,11.6,64.9,11.6,136.7c0,23.1,6.3,44.6,16.9,63.4l-16.7,59.5c-0.8,3,0.9,6.1,3.9,7
	c0.9,0.3,1.9,0.3,2.9,0l62.1-15.4c18.2,9.7,38.9,15.5,61,15.5c71.8,0,130.1-58.3,130.1-130.1S213.5,6.6,141.7,6.6z M141.7,17.9
	c65.7,0,118.8,53.1,118.8,118.8s-53.1,118.8-118.8,118.8c-21.1,0-40.8-5.5-57.9-15.1c-1.3-0.7-2.7-0.9-4.1-0.5l-54.4,13.5l14.6-52
	c0.4-1.5,0.2-3.1-0.6-4.4c-10.4-17.7-16.4-38.2-16.4-60.2C22.9,71,76,17.9,141.7,17.9z M94.4,68.8c-3.6,0-8.8,1.4-13.1,5.9
	c-2.6,2.8-13.2,13.1-13.2,31.4c0,19,13.2,35.4,14.8,37.5h0v0c-0.2-0.2,2,3,4.9,6.7c2.9,3.8,7,8.7,12.1,14.1
	c10.2,10.7,24.5,23.2,42.3,30.8c8.2,3.5,14.7,5.6,19.6,7.1c9.1,2.9,17.4,2.4,23.6,1.5c4.7-0.7,9.8-2.9,14.8-6.1
	c5.1-3.2,10-7.2,12.2-13.2c1.6-4.3,2.4-8.4,2.7-11.6c0.1-1.6,0.2-3.1,0.1-4.5c-0.1-1.4,0-2.4-1.3-4.4c-2.6-4.3-5.6-4.4-8.7-6
	c-1.7-0.9-6.7-3.3-11.6-5.6c-4.9-2.4-9.2-4.4-11.8-5.4c-1.7-0.6-3.7-1.5-6.6-1.1s-5.8,2.4-7.5,4.9c-1.6,2.4-8,10-10,12.2
	c0,0,0.1,0.1-0.6-0.3c-2.4-1.2-5.4-2.2-9.8-4.5c-4.4-2.3-9.9-5.7-15.9-11v0c-8.9-7.9-15.2-17.7-17.2-21c0.1-0.2,0,0,0.3-0.2l0,0
	c2-2,3.8-4.4,5.3-6.1c2.1-2.5,3.1-4.6,4.1-6.7c2-4,0.9-8.5-0.3-10.9v0c0.1,0.2-0.6-1.4-1.4-3.3c-0.8-1.8-1.8-4.2-2.8-6.8
	c-2.1-5.1-4.5-10.8-5.9-14.1v0c-1.7-3.9-3.9-6.8-6.8-8.1c-2.9-1.4-5.5-1-5.6-1h0C99,68.8,96.7,68.8,94.4,68.8z M94.4,80.1
	c2.2,0,4.3,0,6.1,0.1c1.8,0.1,1.7,0.1,1.4-0.1s0.1-0.2,1.2,2.3c1.4,3.3,3.8,9,5.9,14.1c1.1,2.5,2.1,4.9,2.8,6.8s1.2,2.9,1.7,3.9v0
	l0,0c0.5,1,0.5,0.4,0.3,0.7c-1.2,2.4-1.4,3-2.6,4.3c-1.8,2.1-3.7,4.5-4.7,5.5c-0.9,0.9-2.4,2.2-3.4,4.8c-1,2.6-0.5,6.2,1,8.9
	c2.1,3.5,9,14.8,19.7,24.2c6.8,6,13,9.9,18.1,12.5c5,2.6,9.1,4.2,10,4.6c2.2,1.1,4.5,1.9,7.3,1.6c2.8-0.3,5.2-2,6.7-3.7l0,0
	c2-2.3,8-9.1,10.9-13.4c0.1,0,0.1,0,1,0.4v0h0c0.4,0.2,5.9,2.6,10.8,4.9s9.8,4.7,11.4,5.5c2.3,1.1,3.4,1.9,3.7,1.9c0,0.5,0,1,0,1.9
	c-0.2,2.3-0.8,5.4-2,8.8c-0.6,1.6-3.7,5-7.6,7.5s-8.7,4.2-10.4,4.5c-5.3,0.8-11.6,1.1-18.5-1.1c-4.8-1.5-10.8-3.5-18.5-6.8
	c-15.7-6.7-29-18.1-38.6-28.1c-4.8-5-8.6-9.7-11.3-13.2c-2.7-3.5-3.9-5.4-4.9-6.7l0,0c-1.8-2.3-12.5-17.3-12.5-30.7
	c0-14.2,6.6-19.8,10.2-23.7C91.5,80.4,93.6,80.1,94.4,80.1z"/>
</svg>
